<mxfile host="app.diagrams.net" modified="2021-09-10T03:56:51.643Z" agent="5.0 (Windows NT 10.0; Win64; x64) AppleWebKit/537.36 (KHTML, like Gecko) Chrome/92.0.4515.131 Safari/537.36" etag="v-CV2MSPr93aEa26Wgmb" version="15.1.4" type="github">
  <diagram id="LfFuWhnvdSPOQBBMKqEx" name="Page-1">
    <mxGraphModel dx="3076" dy="761" grid="1" gridSize="10" guides="1" tooltips="1" connect="1" arrows="1" fold="1" page="1" pageScale="1" pageWidth="827" pageHeight="1169" math="0" shadow="0">
      <root>
        <mxCell id="0" />
        <mxCell id="1" parent="0" />
        <mxCell id="RHD-6Kkyox2Mu23NZGxg-42" value="A4_SYS_ROLEINFO" style="shape=table;startSize=30;container=1;collapsible=1;childLayout=tableLayout;fixedRows=1;rowLines=0;fontStyle=1;align=center;resizeLast=1;" vertex="1" parent="1">
          <mxGeometry x="200" y="310" width="180" height="90" as="geometry">
            <mxRectangle x="200" y="200" width="60" height="30" as="alternateBounds" />
          </mxGeometry>
        </mxCell>
        <mxCell id="RHD-6Kkyox2Mu23NZGxg-43" value="" style="shape=partialRectangle;collapsible=0;dropTarget=0;pointerEvents=0;fillColor=none;top=0;left=0;bottom=1;right=0;points=[[0,0.5],[1,0.5]];portConstraint=eastwest;" vertex="1" parent="RHD-6Kkyox2Mu23NZGxg-42">
          <mxGeometry y="30" width="180" height="30" as="geometry" />
        </mxCell>
        <mxCell id="RHD-6Kkyox2Mu23NZGxg-44" value="PK" style="shape=partialRectangle;connectable=0;fillColor=none;top=0;left=0;bottom=0;right=0;fontStyle=1;overflow=hidden;" vertex="1" parent="RHD-6Kkyox2Mu23NZGxg-43">
          <mxGeometry width="30" height="30" as="geometry" />
        </mxCell>
        <mxCell id="RHD-6Kkyox2Mu23NZGxg-45" value="ROLEID" style="shape=partialRectangle;connectable=0;fillColor=none;top=0;left=0;bottom=0;right=0;align=left;spacingLeft=6;fontStyle=5;overflow=hidden;" vertex="1" parent="RHD-6Kkyox2Mu23NZGxg-43">
          <mxGeometry x="30" width="150" height="30" as="geometry" />
        </mxCell>
        <mxCell id="RHD-6Kkyox2Mu23NZGxg-46" value="" style="shape=partialRectangle;collapsible=0;dropTarget=0;pointerEvents=0;fillColor=none;top=0;left=0;bottom=0;right=0;points=[[0,0.5],[1,0.5]];portConstraint=eastwest;" vertex="1" parent="RHD-6Kkyox2Mu23NZGxg-42">
          <mxGeometry y="60" width="180" height="30" as="geometry" />
        </mxCell>
        <mxCell id="RHD-6Kkyox2Mu23NZGxg-47" value="" style="shape=partialRectangle;connectable=0;fillColor=none;top=0;left=0;bottom=0;right=0;editable=1;overflow=hidden;" vertex="1" parent="RHD-6Kkyox2Mu23NZGxg-46">
          <mxGeometry width="30" height="30" as="geometry" />
        </mxCell>
        <mxCell id="RHD-6Kkyox2Mu23NZGxg-48" value="EVENTID" style="shape=partialRectangle;connectable=0;fillColor=none;top=0;left=0;bottom=0;right=0;align=left;spacingLeft=6;overflow=hidden;" vertex="1" parent="RHD-6Kkyox2Mu23NZGxg-46">
          <mxGeometry x="30" width="150" height="30" as="geometry" />
        </mxCell>
        <mxCell id="RHD-6Kkyox2Mu23NZGxg-68" value="A4_SYS_MODULEROLE" style="shape=table;startSize=30;container=1;collapsible=1;childLayout=tableLayout;fixedRows=1;rowLines=0;fontStyle=1;align=center;resizeLast=1;" vertex="1" parent="1">
          <mxGeometry x="460" y="300" width="180" height="160" as="geometry" />
        </mxCell>
        <mxCell id="RHD-6Kkyox2Mu23NZGxg-69" value="" style="shape=partialRectangle;collapsible=0;dropTarget=0;pointerEvents=0;fillColor=none;top=0;left=0;bottom=0;right=0;points=[[0,0.5],[1,0.5]];portConstraint=eastwest;" vertex="1" parent="RHD-6Kkyox2Mu23NZGxg-68">
          <mxGeometry y="30" width="180" height="30" as="geometry" />
        </mxCell>
        <mxCell id="RHD-6Kkyox2Mu23NZGxg-70" value="PK,FK1" style="shape=partialRectangle;connectable=0;fillColor=none;top=0;left=0;bottom=0;right=0;fontStyle=1;overflow=hidden;" vertex="1" parent="RHD-6Kkyox2Mu23NZGxg-69">
          <mxGeometry width="60" height="30" as="geometry" />
        </mxCell>
        <mxCell id="RHD-6Kkyox2Mu23NZGxg-71" value="ROLEID" style="shape=partialRectangle;connectable=0;fillColor=none;top=0;left=0;bottom=0;right=0;align=left;spacingLeft=6;fontStyle=5;overflow=hidden;" vertex="1" parent="RHD-6Kkyox2Mu23NZGxg-69">
          <mxGeometry x="60" width="120" height="30" as="geometry" />
        </mxCell>
        <mxCell id="RHD-6Kkyox2Mu23NZGxg-72" value="" style="shape=partialRectangle;collapsible=0;dropTarget=0;pointerEvents=0;fillColor=none;top=0;left=0;bottom=1;right=0;points=[[0,0.5],[1,0.5]];portConstraint=eastwest;" vertex="1" parent="RHD-6Kkyox2Mu23NZGxg-68">
          <mxGeometry y="60" width="180" height="30" as="geometry" />
        </mxCell>
        <mxCell id="RHD-6Kkyox2Mu23NZGxg-73" value="PK,FK2" style="shape=partialRectangle;connectable=0;fillColor=none;top=0;left=0;bottom=0;right=0;fontStyle=1;overflow=hidden;" vertex="1" parent="RHD-6Kkyox2Mu23NZGxg-72">
          <mxGeometry width="60" height="30" as="geometry" />
        </mxCell>
        <mxCell id="RHD-6Kkyox2Mu23NZGxg-74" value="MODULEID" style="shape=partialRectangle;connectable=0;fillColor=none;top=0;left=0;bottom=0;right=0;align=left;spacingLeft=6;fontStyle=5;overflow=hidden;" vertex="1" parent="RHD-6Kkyox2Mu23NZGxg-72">
          <mxGeometry x="60" width="120" height="30" as="geometry" />
        </mxCell>
        <mxCell id="RHD-6Kkyox2Mu23NZGxg-75" value="" style="shape=partialRectangle;collapsible=0;dropTarget=0;pointerEvents=0;fillColor=none;top=0;left=0;bottom=0;right=0;points=[[0,0.5],[1,0.5]];portConstraint=eastwest;" vertex="1" parent="RHD-6Kkyox2Mu23NZGxg-68">
          <mxGeometry y="90" width="180" height="30" as="geometry" />
        </mxCell>
        <mxCell id="RHD-6Kkyox2Mu23NZGxg-76" value="" style="shape=partialRectangle;connectable=0;fillColor=none;top=0;left=0;bottom=0;right=0;editable=1;overflow=hidden;" vertex="1" parent="RHD-6Kkyox2Mu23NZGxg-75">
          <mxGeometry width="60" height="30" as="geometry" />
        </mxCell>
        <mxCell id="RHD-6Kkyox2Mu23NZGxg-77" value="ROLEEVENTID" style="shape=partialRectangle;connectable=0;fillColor=none;top=0;left=0;bottom=0;right=0;align=left;spacingLeft=6;overflow=hidden;" vertex="1" parent="RHD-6Kkyox2Mu23NZGxg-75">
          <mxGeometry x="60" width="120" height="30" as="geometry" />
        </mxCell>
        <mxCell id="RHD-6Kkyox2Mu23NZGxg-78" value="" style="shape=partialRectangle;collapsible=0;dropTarget=0;pointerEvents=0;fillColor=none;top=0;left=0;bottom=0;right=0;points=[[0,0.5],[1,0.5]];portConstraint=eastwest;" vertex="1" parent="RHD-6Kkyox2Mu23NZGxg-68">
          <mxGeometry y="120" width="180" height="30" as="geometry" />
        </mxCell>
        <mxCell id="RHD-6Kkyox2Mu23NZGxg-79" value="" style="shape=partialRectangle;connectable=0;fillColor=none;top=0;left=0;bottom=0;right=0;editable=1;overflow=hidden;" vertex="1" parent="RHD-6Kkyox2Mu23NZGxg-78">
          <mxGeometry width="60" height="30" as="geometry" />
        </mxCell>
        <mxCell id="RHD-6Kkyox2Mu23NZGxg-80" value="MODULEEVENTID" style="shape=partialRectangle;connectable=0;fillColor=none;top=0;left=0;bottom=0;right=0;align=left;spacingLeft=6;overflow=hidden;" vertex="1" parent="RHD-6Kkyox2Mu23NZGxg-78">
          <mxGeometry x="60" width="120" height="30" as="geometry" />
        </mxCell>
        <mxCell id="RHD-6Kkyox2Mu23NZGxg-82" style="edgeStyle=orthogonalEdgeStyle;rounded=0;orthogonalLoop=1;jettySize=auto;html=1;exitX=1;exitY=0.5;exitDx=0;exitDy=0;" edge="1" parent="1" source="RHD-6Kkyox2Mu23NZGxg-46" target="RHD-6Kkyox2Mu23NZGxg-75">
          <mxGeometry relative="1" as="geometry" />
        </mxCell>
        <mxCell id="RHD-6Kkyox2Mu23NZGxg-83" value="A4_SYS_MODULEINFO" style="shape=table;startSize=30;container=1;collapsible=1;childLayout=tableLayout;fixedRows=1;rowLines=0;fontStyle=1;align=center;resizeLast=1;" vertex="1" parent="1">
          <mxGeometry x="820" y="330" width="180" height="160" as="geometry" />
        </mxCell>
        <mxCell id="RHD-6Kkyox2Mu23NZGxg-84" value="" style="shape=partialRectangle;collapsible=0;dropTarget=0;pointerEvents=0;fillColor=none;top=0;left=0;bottom=1;right=0;points=[[0,0.5],[1,0.5]];portConstraint=eastwest;" vertex="1" parent="RHD-6Kkyox2Mu23NZGxg-83">
          <mxGeometry y="30" width="180" height="30" as="geometry" />
        </mxCell>
        <mxCell id="RHD-6Kkyox2Mu23NZGxg-85" value="PK" style="shape=partialRectangle;connectable=0;fillColor=none;top=0;left=0;bottom=0;right=0;fontStyle=1;overflow=hidden;" vertex="1" parent="RHD-6Kkyox2Mu23NZGxg-84">
          <mxGeometry width="30" height="30" as="geometry" />
        </mxCell>
        <mxCell id="RHD-6Kkyox2Mu23NZGxg-86" value="MODULEID" style="shape=partialRectangle;connectable=0;fillColor=none;top=0;left=0;bottom=0;right=0;align=left;spacingLeft=6;fontStyle=5;overflow=hidden;" vertex="1" parent="RHD-6Kkyox2Mu23NZGxg-84">
          <mxGeometry x="30" width="150" height="30" as="geometry" />
        </mxCell>
        <mxCell id="RHD-6Kkyox2Mu23NZGxg-87" value="" style="shape=partialRectangle;collapsible=0;dropTarget=0;pointerEvents=0;fillColor=none;top=0;left=0;bottom=0;right=0;points=[[0,0.5],[1,0.5]];portConstraint=eastwest;" vertex="1" parent="RHD-6Kkyox2Mu23NZGxg-83">
          <mxGeometry y="60" width="180" height="30" as="geometry" />
        </mxCell>
        <mxCell id="RHD-6Kkyox2Mu23NZGxg-88" value="" style="shape=partialRectangle;connectable=0;fillColor=none;top=0;left=0;bottom=0;right=0;editable=1;overflow=hidden;" vertex="1" parent="RHD-6Kkyox2Mu23NZGxg-87">
          <mxGeometry width="30" height="30" as="geometry" />
        </mxCell>
        <mxCell id="RHD-6Kkyox2Mu23NZGxg-89" value="MODULENAME" style="shape=partialRectangle;connectable=0;fillColor=none;top=0;left=0;bottom=0;right=0;align=left;spacingLeft=6;overflow=hidden;" vertex="1" parent="RHD-6Kkyox2Mu23NZGxg-87">
          <mxGeometry x="30" width="150" height="30" as="geometry" />
        </mxCell>
        <mxCell id="RHD-6Kkyox2Mu23NZGxg-90" value="" style="shape=partialRectangle;collapsible=0;dropTarget=0;pointerEvents=0;fillColor=none;top=0;left=0;bottom=0;right=0;points=[[0,0.5],[1,0.5]];portConstraint=eastwest;" vertex="1" parent="RHD-6Kkyox2Mu23NZGxg-83">
          <mxGeometry y="90" width="180" height="30" as="geometry" />
        </mxCell>
        <mxCell id="RHD-6Kkyox2Mu23NZGxg-91" value="" style="shape=partialRectangle;connectable=0;fillColor=none;top=0;left=0;bottom=0;right=0;editable=1;overflow=hidden;" vertex="1" parent="RHD-6Kkyox2Mu23NZGxg-90">
          <mxGeometry width="30" height="30" as="geometry" />
        </mxCell>
        <mxCell id="RHD-6Kkyox2Mu23NZGxg-92" value="EVENTID" style="shape=partialRectangle;connectable=0;fillColor=none;top=0;left=0;bottom=0;right=0;align=left;spacingLeft=6;overflow=hidden;" vertex="1" parent="RHD-6Kkyox2Mu23NZGxg-90">
          <mxGeometry x="30" width="150" height="30" as="geometry" />
        </mxCell>
        <mxCell id="RHD-6Kkyox2Mu23NZGxg-93" value="" style="shape=partialRectangle;collapsible=0;dropTarget=0;pointerEvents=0;fillColor=none;top=0;left=0;bottom=0;right=0;points=[[0,0.5],[1,0.5]];portConstraint=eastwest;" vertex="1" parent="RHD-6Kkyox2Mu23NZGxg-83">
          <mxGeometry y="120" width="180" height="30" as="geometry" />
        </mxCell>
        <mxCell id="RHD-6Kkyox2Mu23NZGxg-94" value="" style="shape=partialRectangle;connectable=0;fillColor=none;top=0;left=0;bottom=0;right=0;editable=1;overflow=hidden;" vertex="1" parent="RHD-6Kkyox2Mu23NZGxg-93">
          <mxGeometry width="30" height="30" as="geometry" />
        </mxCell>
        <mxCell id="RHD-6Kkyox2Mu23NZGxg-95" value="Row 3" style="shape=partialRectangle;connectable=0;fillColor=none;top=0;left=0;bottom=0;right=0;align=left;spacingLeft=6;overflow=hidden;" vertex="1" parent="RHD-6Kkyox2Mu23NZGxg-93">
          <mxGeometry x="30" width="150" height="30" as="geometry" />
        </mxCell>
        <mxCell id="RHD-6Kkyox2Mu23NZGxg-97" style="edgeStyle=orthogonalEdgeStyle;rounded=0;orthogonalLoop=1;jettySize=auto;html=1;entryX=1;entryY=0.5;entryDx=0;entryDy=0;" edge="1" parent="1" source="RHD-6Kkyox2Mu23NZGxg-84" target="RHD-6Kkyox2Mu23NZGxg-72">
          <mxGeometry relative="1" as="geometry" />
        </mxCell>
        <mxCell id="RHD-6Kkyox2Mu23NZGxg-98" style="edgeStyle=orthogonalEdgeStyle;rounded=0;orthogonalLoop=1;jettySize=auto;html=1;exitX=0;exitY=0.5;exitDx=0;exitDy=0;entryX=1;entryY=0.5;entryDx=0;entryDy=0;" edge="1" parent="1" source="RHD-6Kkyox2Mu23NZGxg-90" target="RHD-6Kkyox2Mu23NZGxg-78">
          <mxGeometry relative="1" as="geometry" />
        </mxCell>
        <mxCell id="RHD-6Kkyox2Mu23NZGxg-128" style="edgeStyle=orthogonalEdgeStyle;rounded=0;orthogonalLoop=1;jettySize=auto;html=1;exitX=1;exitY=0.5;exitDx=0;exitDy=0;entryX=0;entryY=0.5;entryDx=0;entryDy=0;" edge="1" parent="1" source="RHD-6Kkyox2Mu23NZGxg-43" target="RHD-6Kkyox2Mu23NZGxg-69">
          <mxGeometry relative="1" as="geometry" />
        </mxCell>
        <mxCell id="RHD-6Kkyox2Mu23NZGxg-130" style="edgeStyle=orthogonalEdgeStyle;rounded=0;orthogonalLoop=1;jettySize=auto;html=1;exitX=0;exitY=0.5;exitDx=0;exitDy=0;entryX=1;entryY=0.5;entryDx=0;entryDy=0;" edge="1" parent="1" source="RHD-6Kkyox2Mu23NZGxg-43" target="RHD-6Kkyox2Mu23NZGxg-113">
          <mxGeometry relative="1" as="geometry" />
        </mxCell>
        <mxCell id="RHD-6Kkyox2Mu23NZGxg-131" style="edgeStyle=orthogonalEdgeStyle;rounded=0;orthogonalLoop=1;jettySize=auto;html=1;exitX=0;exitY=0.5;exitDx=0;exitDy=0;" edge="1" parent="1" source="RHD-6Kkyox2Mu23NZGxg-46" target="RHD-6Kkyox2Mu23NZGxg-119">
          <mxGeometry relative="1" as="geometry" />
        </mxCell>
        <mxCell id="RHD-6Kkyox2Mu23NZGxg-149" style="edgeStyle=orthogonalEdgeStyle;rounded=0;orthogonalLoop=1;jettySize=auto;html=1;exitX=1;exitY=0.5;exitDx=0;exitDy=0;" edge="1" parent="1" source="RHD-6Kkyox2Mu23NZGxg-137" target="RHD-6Kkyox2Mu23NZGxg-116">
          <mxGeometry relative="1" as="geometry" />
        </mxCell>
        <mxCell id="RHD-6Kkyox2Mu23NZGxg-150" value="A4_SYS_USER" style="shape=table;startSize=30;container=1;collapsible=1;childLayout=tableLayout;fixedRows=1;rowLines=0;fontStyle=1;align=center;resizeLast=1;" vertex="1" parent="1">
          <mxGeometry x="-900" y="150" width="180" height="190" as="geometry" />
        </mxCell>
        <mxCell id="RHD-6Kkyox2Mu23NZGxg-151" value="" style="shape=partialRectangle;collapsible=0;dropTarget=0;pointerEvents=0;fillColor=none;top=0;left=0;bottom=1;right=0;points=[[0,0.5],[1,0.5]];portConstraint=eastwest;" vertex="1" parent="RHD-6Kkyox2Mu23NZGxg-150">
          <mxGeometry y="30" width="180" height="30" as="geometry" />
        </mxCell>
        <mxCell id="RHD-6Kkyox2Mu23NZGxg-152" value="PK" style="shape=partialRectangle;connectable=0;fillColor=none;top=0;left=0;bottom=0;right=0;fontStyle=1;overflow=hidden;" vertex="1" parent="RHD-6Kkyox2Mu23NZGxg-151">
          <mxGeometry width="30" height="30" as="geometry" />
        </mxCell>
        <mxCell id="RHD-6Kkyox2Mu23NZGxg-153" value="USERID" style="shape=partialRectangle;connectable=0;fillColor=none;top=0;left=0;bottom=0;right=0;align=left;spacingLeft=6;fontStyle=5;overflow=hidden;" vertex="1" parent="RHD-6Kkyox2Mu23NZGxg-151">
          <mxGeometry x="30" width="150" height="30" as="geometry" />
        </mxCell>
        <mxCell id="RHD-6Kkyox2Mu23NZGxg-154" value="" style="shape=partialRectangle;collapsible=0;dropTarget=0;pointerEvents=0;fillColor=none;top=0;left=0;bottom=0;right=0;points=[[0,0.5],[1,0.5]];portConstraint=eastwest;" vertex="1" parent="RHD-6Kkyox2Mu23NZGxg-150">
          <mxGeometry y="60" width="180" height="30" as="geometry" />
        </mxCell>
        <mxCell id="RHD-6Kkyox2Mu23NZGxg-155" value="" style="shape=partialRectangle;connectable=0;fillColor=none;top=0;left=0;bottom=0;right=0;editable=1;overflow=hidden;" vertex="1" parent="RHD-6Kkyox2Mu23NZGxg-154">
          <mxGeometry width="30" height="30" as="geometry" />
        </mxCell>
        <mxCell id="RHD-6Kkyox2Mu23NZGxg-156" value="USERNAME" style="shape=partialRectangle;connectable=0;fillColor=none;top=0;left=0;bottom=0;right=0;align=left;spacingLeft=6;overflow=hidden;" vertex="1" parent="RHD-6Kkyox2Mu23NZGxg-154">
          <mxGeometry x="30" width="150" height="30" as="geometry" />
        </mxCell>
        <mxCell id="RHD-6Kkyox2Mu23NZGxg-157" value="" style="shape=partialRectangle;collapsible=0;dropTarget=0;pointerEvents=0;fillColor=none;top=0;left=0;bottom=0;right=0;points=[[0,0.5],[1,0.5]];portConstraint=eastwest;" vertex="1" parent="RHD-6Kkyox2Mu23NZGxg-150">
          <mxGeometry y="90" width="180" height="30" as="geometry" />
        </mxCell>
        <mxCell id="RHD-6Kkyox2Mu23NZGxg-158" value="" style="shape=partialRectangle;connectable=0;fillColor=none;top=0;left=0;bottom=0;right=0;editable=1;overflow=hidden;" vertex="1" parent="RHD-6Kkyox2Mu23NZGxg-157">
          <mxGeometry width="30" height="30" as="geometry" />
        </mxCell>
        <mxCell id="RHD-6Kkyox2Mu23NZGxg-159" value="PASSWORD" style="shape=partialRectangle;connectable=0;fillColor=none;top=0;left=0;bottom=0;right=0;align=left;spacingLeft=6;overflow=hidden;" vertex="1" parent="RHD-6Kkyox2Mu23NZGxg-157">
          <mxGeometry x="30" width="150" height="30" as="geometry" />
        </mxCell>
        <mxCell id="RHD-6Kkyox2Mu23NZGxg-160" value="" style="shape=partialRectangle;collapsible=0;dropTarget=0;pointerEvents=0;fillColor=none;top=0;left=0;bottom=0;right=0;points=[[0,0.5],[1,0.5]];portConstraint=eastwest;" vertex="1" parent="RHD-6Kkyox2Mu23NZGxg-150">
          <mxGeometry y="120" width="180" height="30" as="geometry" />
        </mxCell>
        <mxCell id="RHD-6Kkyox2Mu23NZGxg-161" value="" style="shape=partialRectangle;connectable=0;fillColor=none;top=0;left=0;bottom=0;right=0;editable=1;overflow=hidden;" vertex="1" parent="RHD-6Kkyox2Mu23NZGxg-160">
          <mxGeometry width="30" height="30" as="geometry" />
        </mxCell>
        <mxCell id="RHD-6Kkyox2Mu23NZGxg-162" value="SSDWBS:网格信息" style="shape=partialRectangle;connectable=0;fillColor=none;top=0;left=0;bottom=0;right=0;align=left;spacingLeft=6;overflow=hidden;" vertex="1" parent="RHD-6Kkyox2Mu23NZGxg-160">
          <mxGeometry x="30" width="150" height="30" as="geometry" />
        </mxCell>
        <mxCell id="RHD-6Kkyox2Mu23NZGxg-172" style="shape=partialRectangle;collapsible=0;dropTarget=0;pointerEvents=0;fillColor=none;top=0;left=0;bottom=0;right=0;points=[[0,0.5],[1,0.5]];portConstraint=eastwest;" vertex="1" parent="RHD-6Kkyox2Mu23NZGxg-150">
          <mxGeometry y="150" width="180" height="30" as="geometry" />
        </mxCell>
        <mxCell id="RHD-6Kkyox2Mu23NZGxg-173" style="shape=partialRectangle;connectable=0;fillColor=none;top=0;left=0;bottom=0;right=0;editable=1;overflow=hidden;" vertex="1" parent="RHD-6Kkyox2Mu23NZGxg-172">
          <mxGeometry width="30" height="30" as="geometry" />
        </mxCell>
        <mxCell id="RHD-6Kkyox2Mu23NZGxg-174" value="ACCOUNTID" style="shape=partialRectangle;connectable=0;fillColor=none;top=0;left=0;bottom=0;right=0;align=left;spacingLeft=6;overflow=hidden;" vertex="1" parent="RHD-6Kkyox2Mu23NZGxg-172">
          <mxGeometry x="30" width="150" height="30" as="geometry" />
        </mxCell>
        <mxCell id="RHD-6Kkyox2Mu23NZGxg-165" value="" style="group" vertex="1" connectable="0" parent="1">
          <mxGeometry x="-130" y="300" width="260" height="210" as="geometry" />
        </mxCell>
        <mxCell id="RHD-6Kkyox2Mu23NZGxg-112" value="A4_SYS_USERINROLE" style="shape=table;startSize=30;container=1;collapsible=1;childLayout=tableLayout;fixedRows=1;rowLines=0;fontStyle=1;align=center;resizeLast=1;" vertex="1" parent="RHD-6Kkyox2Mu23NZGxg-165">
          <mxGeometry x="30" width="180" height="160" as="geometry" />
        </mxCell>
        <mxCell id="RHD-6Kkyox2Mu23NZGxg-113" value="" style="shape=partialRectangle;collapsible=0;dropTarget=0;pointerEvents=0;fillColor=none;top=0;left=0;bottom=0;right=0;points=[[0,0.5],[1,0.5]];portConstraint=eastwest;" vertex="1" parent="RHD-6Kkyox2Mu23NZGxg-112">
          <mxGeometry y="30" width="180" height="30" as="geometry" />
        </mxCell>
        <mxCell id="RHD-6Kkyox2Mu23NZGxg-114" value="PK,FK1" style="shape=partialRectangle;connectable=0;fillColor=none;top=0;left=0;bottom=0;right=0;fontStyle=1;overflow=hidden;" vertex="1" parent="RHD-6Kkyox2Mu23NZGxg-113">
          <mxGeometry width="60" height="30" as="geometry" />
        </mxCell>
        <mxCell id="RHD-6Kkyox2Mu23NZGxg-115" value="ROLEID" style="shape=partialRectangle;connectable=0;fillColor=none;top=0;left=0;bottom=0;right=0;align=left;spacingLeft=6;fontStyle=5;overflow=hidden;" vertex="1" parent="RHD-6Kkyox2Mu23NZGxg-113">
          <mxGeometry x="60" width="120" height="30" as="geometry" />
        </mxCell>
        <mxCell id="RHD-6Kkyox2Mu23NZGxg-116" value="" style="shape=partialRectangle;collapsible=0;dropTarget=0;pointerEvents=0;fillColor=none;top=0;left=0;bottom=1;right=0;points=[[0,0.5],[1,0.5]];portConstraint=eastwest;" vertex="1" parent="RHD-6Kkyox2Mu23NZGxg-112">
          <mxGeometry y="60" width="180" height="30" as="geometry" />
        </mxCell>
        <mxCell id="RHD-6Kkyox2Mu23NZGxg-117" value="PK,FK2" style="shape=partialRectangle;connectable=0;fillColor=none;top=0;left=0;bottom=0;right=0;fontStyle=1;overflow=hidden;" vertex="1" parent="RHD-6Kkyox2Mu23NZGxg-116">
          <mxGeometry width="60" height="30" as="geometry" />
        </mxCell>
        <mxCell id="RHD-6Kkyox2Mu23NZGxg-118" value="USERID" style="shape=partialRectangle;connectable=0;fillColor=none;top=0;left=0;bottom=0;right=0;align=left;spacingLeft=6;fontStyle=5;overflow=hidden;" vertex="1" parent="RHD-6Kkyox2Mu23NZGxg-116">
          <mxGeometry x="60" width="120" height="30" as="geometry" />
        </mxCell>
        <mxCell id="RHD-6Kkyox2Mu23NZGxg-119" value="" style="shape=partialRectangle;collapsible=0;dropTarget=0;pointerEvents=0;fillColor=none;top=0;left=0;bottom=0;right=0;points=[[0,0.5],[1,0.5]];portConstraint=eastwest;" vertex="1" parent="RHD-6Kkyox2Mu23NZGxg-112">
          <mxGeometry y="90" width="180" height="30" as="geometry" />
        </mxCell>
        <mxCell id="RHD-6Kkyox2Mu23NZGxg-120" value="" style="shape=partialRectangle;connectable=0;fillColor=none;top=0;left=0;bottom=0;right=0;editable=1;overflow=hidden;" vertex="1" parent="RHD-6Kkyox2Mu23NZGxg-119">
          <mxGeometry width="60" height="30" as="geometry" />
        </mxCell>
        <mxCell id="RHD-6Kkyox2Mu23NZGxg-121" value="ROLEEVENTID" style="shape=partialRectangle;connectable=0;fillColor=none;top=0;left=0;bottom=0;right=0;align=left;spacingLeft=6;overflow=hidden;" vertex="1" parent="RHD-6Kkyox2Mu23NZGxg-119">
          <mxGeometry x="60" width="120" height="30" as="geometry" />
        </mxCell>
        <mxCell id="RHD-6Kkyox2Mu23NZGxg-122" value="" style="shape=partialRectangle;collapsible=0;dropTarget=0;pointerEvents=0;fillColor=none;top=0;left=0;bottom=0;right=0;points=[[0,0.5],[1,0.5]];portConstraint=eastwest;" vertex="1" parent="RHD-6Kkyox2Mu23NZGxg-112">
          <mxGeometry y="120" width="180" height="30" as="geometry" />
        </mxCell>
        <mxCell id="RHD-6Kkyox2Mu23NZGxg-123" value="" style="shape=partialRectangle;connectable=0;fillColor=none;top=0;left=0;bottom=0;right=0;editable=1;overflow=hidden;" vertex="1" parent="RHD-6Kkyox2Mu23NZGxg-122">
          <mxGeometry width="60" height="30" as="geometry" />
        </mxCell>
        <mxCell id="RHD-6Kkyox2Mu23NZGxg-124" value="Row 4" style="shape=partialRectangle;connectable=0;fillColor=none;top=0;left=0;bottom=0;right=0;align=left;spacingLeft=6;overflow=hidden;" vertex="1" parent="RHD-6Kkyox2Mu23NZGxg-122">
          <mxGeometry x="60" width="120" height="30" as="geometry" />
        </mxCell>
        <mxCell id="RHD-6Kkyox2Mu23NZGxg-132" value="给角色分配用户时:&lt;br&gt;加载的是身份信息，但是分配到了用户账号上&lt;br&gt;只记录了userid信息&lt;br&gt;" style="text;html=1;resizable=0;autosize=1;align=center;verticalAlign=middle;points=[];fillColor=none;strokeColor=none;rounded=0;" vertex="1" parent="RHD-6Kkyox2Mu23NZGxg-165">
          <mxGeometry y="160" width="260" height="50" as="geometry" />
        </mxCell>
        <mxCell id="RHD-6Kkyox2Mu23NZGxg-167" value="" style="group" vertex="1" connectable="0" parent="1">
          <mxGeometry x="-400" y="140" width="275" height="229.99697674418604" as="geometry" />
        </mxCell>
        <mxCell id="RHD-6Kkyox2Mu23NZGxg-133" value="A4_SYS_ACCOUNT" style="shape=table;startSize=30;container=1;collapsible=1;childLayout=tableLayout;fixedRows=1;rowLines=0;fontStyle=1;align=center;resizeLast=1;" vertex="1" parent="RHD-6Kkyox2Mu23NZGxg-167">
          <mxGeometry x="10" width="180" height="180" as="geometry" />
        </mxCell>
        <mxCell id="RHD-6Kkyox2Mu23NZGxg-134" value="" style="shape=partialRectangle;collapsible=0;dropTarget=0;pointerEvents=0;fillColor=none;top=0;left=0;bottom=1;right=0;points=[[0,0.5],[1,0.5]];portConstraint=eastwest;" vertex="1" parent="RHD-6Kkyox2Mu23NZGxg-133">
          <mxGeometry y="30" width="180" height="30" as="geometry" />
        </mxCell>
        <mxCell id="RHD-6Kkyox2Mu23NZGxg-135" value="PK" style="shape=partialRectangle;connectable=0;fillColor=none;top=0;left=0;bottom=0;right=0;fontStyle=1;overflow=hidden;" vertex="1" parent="RHD-6Kkyox2Mu23NZGxg-134">
          <mxGeometry width="30" height="30" as="geometry" />
        </mxCell>
        <mxCell id="RHD-6Kkyox2Mu23NZGxg-136" value="ID" style="shape=partialRectangle;connectable=0;fillColor=none;top=0;left=0;bottom=0;right=0;align=left;spacingLeft=6;fontStyle=5;overflow=hidden;" vertex="1" parent="RHD-6Kkyox2Mu23NZGxg-134">
          <mxGeometry x="30" width="150" height="30" as="geometry" />
        </mxCell>
        <mxCell id="RHD-6Kkyox2Mu23NZGxg-137" value="" style="shape=partialRectangle;collapsible=0;dropTarget=0;pointerEvents=0;fillColor=none;top=0;left=0;bottom=0;right=0;points=[[0,0.5],[1,0.5]];portConstraint=eastwest;" vertex="1" parent="RHD-6Kkyox2Mu23NZGxg-133">
          <mxGeometry y="60" width="180" height="30" as="geometry" />
        </mxCell>
        <mxCell id="RHD-6Kkyox2Mu23NZGxg-138" value="" style="shape=partialRectangle;connectable=0;fillColor=none;top=0;left=0;bottom=0;right=0;editable=1;overflow=hidden;" vertex="1" parent="RHD-6Kkyox2Mu23NZGxg-137">
          <mxGeometry width="30" height="30" as="geometry" />
        </mxCell>
        <mxCell id="RHD-6Kkyox2Mu23NZGxg-139" value="ACCOUNT" style="shape=partialRectangle;connectable=0;fillColor=none;top=0;left=0;bottom=0;right=0;align=left;spacingLeft=6;overflow=hidden;" vertex="1" parent="RHD-6Kkyox2Mu23NZGxg-137">
          <mxGeometry x="30" width="150" height="30" as="geometry" />
        </mxCell>
        <mxCell id="RHD-6Kkyox2Mu23NZGxg-146" style="shape=partialRectangle;collapsible=0;dropTarget=0;pointerEvents=0;fillColor=none;top=0;left=0;bottom=0;right=0;points=[[0,0.5],[1,0.5]];portConstraint=eastwest;" vertex="1" parent="RHD-6Kkyox2Mu23NZGxg-133">
          <mxGeometry y="90" width="180" height="30" as="geometry" />
        </mxCell>
        <mxCell id="RHD-6Kkyox2Mu23NZGxg-147" style="shape=partialRectangle;connectable=0;fillColor=none;top=0;left=0;bottom=0;right=0;editable=1;overflow=hidden;" vertex="1" parent="RHD-6Kkyox2Mu23NZGxg-146">
          <mxGeometry width="30" height="30" as="geometry" />
        </mxCell>
        <mxCell id="RHD-6Kkyox2Mu23NZGxg-148" value="DEFAULTUSER:默认用户" style="shape=partialRectangle;connectable=0;fillColor=none;top=0;left=0;bottom=0;right=0;align=left;spacingLeft=6;overflow=hidden;" vertex="1" parent="RHD-6Kkyox2Mu23NZGxg-146">
          <mxGeometry x="30" width="150" height="30" as="geometry" />
        </mxCell>
        <mxCell id="RHD-6Kkyox2Mu23NZGxg-140" value="" style="shape=partialRectangle;collapsible=0;dropTarget=0;pointerEvents=0;fillColor=none;top=0;left=0;bottom=0;right=0;points=[[0,0.5],[1,0.5]];portConstraint=eastwest;" vertex="1" parent="RHD-6Kkyox2Mu23NZGxg-133">
          <mxGeometry y="120" width="180" height="30" as="geometry" />
        </mxCell>
        <mxCell id="RHD-6Kkyox2Mu23NZGxg-141" value="" style="shape=partialRectangle;connectable=0;fillColor=none;top=0;left=0;bottom=0;right=0;editable=1;overflow=hidden;" vertex="1" parent="RHD-6Kkyox2Mu23NZGxg-140">
          <mxGeometry width="30" height="30" as="geometry" />
        </mxCell>
        <mxCell id="RHD-6Kkyox2Mu23NZGxg-142" value="ACCOUNTNAME" style="shape=partialRectangle;connectable=0;fillColor=none;top=0;left=0;bottom=0;right=0;align=left;spacingLeft=6;overflow=hidden;" vertex="1" parent="RHD-6Kkyox2Mu23NZGxg-140">
          <mxGeometry x="30" width="150" height="30" as="geometry" />
        </mxCell>
        <mxCell id="RHD-6Kkyox2Mu23NZGxg-143" value="" style="shape=partialRectangle;collapsible=0;dropTarget=0;pointerEvents=0;fillColor=none;top=0;left=0;bottom=0;right=0;points=[[0,0.5],[1,0.5]];portConstraint=eastwest;" vertex="1" parent="RHD-6Kkyox2Mu23NZGxg-133">
          <mxGeometry y="150" width="180" height="30" as="geometry" />
        </mxCell>
        <mxCell id="RHD-6Kkyox2Mu23NZGxg-144" value="" style="shape=partialRectangle;connectable=0;fillColor=none;top=0;left=0;bottom=0;right=0;editable=1;overflow=hidden;" vertex="1" parent="RHD-6Kkyox2Mu23NZGxg-143">
          <mxGeometry width="30" height="30" as="geometry" />
        </mxCell>
        <mxCell id="RHD-6Kkyox2Mu23NZGxg-145" value="PASSWORD" style="shape=partialRectangle;connectable=0;fillColor=none;top=0;left=0;bottom=0;right=0;align=left;spacingLeft=6;overflow=hidden;" vertex="1" parent="RHD-6Kkyox2Mu23NZGxg-143">
          <mxGeometry x="30" width="150" height="30" as="geometry" />
        </mxCell>
        <mxCell id="RHD-6Kkyox2Mu23NZGxg-163" value="账号信息：没有网格信息（身份）&lt;br&gt;切换身份：更新DEFAULTUSER值&lt;br&gt;适应双重身份新增的ACCOUNT表，开双重身份，验证此表PWD&lt;br&gt;" style="text;html=1;resizable=0;autosize=1;align=center;verticalAlign=middle;points=[];fillColor=none;strokeColor=none;rounded=0;" vertex="1" parent="RHD-6Kkyox2Mu23NZGxg-167">
          <mxGeometry x="-75" y="179.99697674418604" width="350" height="50" as="geometry" />
        </mxCell>
        <mxCell id="RHD-6Kkyox2Mu23NZGxg-171" value="" style="group" vertex="1" connectable="0" parent="1">
          <mxGeometry x="-600" y="10" width="160" height="270" as="geometry" />
        </mxCell>
        <mxCell id="RHD-6Kkyox2Mu23NZGxg-168" style="edgeStyle=orthogonalEdgeStyle;rounded=0;orthogonalLoop=1;jettySize=auto;html=1;exitX=0;exitY=0.5;exitDx=0;exitDy=0;entryX=1;entryY=0.5;entryDx=0;entryDy=0;" edge="1" parent="RHD-6Kkyox2Mu23NZGxg-171" source="RHD-6Kkyox2Mu23NZGxg-137" target="RHD-6Kkyox2Mu23NZGxg-151">
          <mxGeometry relative="1" as="geometry">
            <Array as="points">
              <mxPoint x="210" y="100" />
              <mxPoint x="160" y="100" />
              <mxPoint x="160" y="185" />
            </Array>
          </mxGeometry>
        </mxCell>
        <mxCell id="RHD-6Kkyox2Mu23NZGxg-169" value="多一个网格（身份）信息&lt;br&gt;新增一条A4_SYS_USER&lt;br&gt;USERID-1" style="text;html=1;resizable=0;autosize=1;align=center;verticalAlign=middle;points=[];fillColor=none;strokeColor=none;rounded=0;" vertex="1" parent="RHD-6Kkyox2Mu23NZGxg-171">
          <mxGeometry y="95" width="150" height="50" as="geometry" />
        </mxCell>
      </root>
    </mxGraphModel>
  </diagram>
</mxfile>
